<?xml version="1.0" standalone="no"?>
<!DOCTYPE svg PUBLIC "-//W3C//DTD SVG 20010904//EN"
 "http://www.w3.org/TR/2001/REC-SVG-20010904/DTD/svg10.dtd">
<svg version="1.0" xmlns="http://www.w3.org/2000/svg"
 width="156.000000pt" height="48.000000pt" viewBox="0 0 156.000000 48.000000"
 preserveAspectRatio="xMidYMid meet">
<metadata>
Created by potrace 1.15, written by Peter Selinger 2001-2017
</metadata>
<g transform="translate(0.000000,48.000000) scale(0.100000,-0.100000)"
fill="#000000" stroke="none">
<path d="M540 255 c0 -126 0 -127 22 -122 12 3 30 1 41 -4 26 -14 71 5 86 37
35 77 -17 159 -85 134 -21 -9 -23 -7 -26 33 -2 30 -8 43 -20 45 -16 3 -18 -8
-18 -123z"/>
<path d="M1337 374 c-4 -4 -7 -24 -7 -45 0 -37 -1 -38 -25 -29 -51 19 -95 -24
-95 -94 0 -48 28 -79 71 -78 19 1 47 1 62 1 l28 1 -3 122 c-3 113 -10 142 -31
122z"/>
<path d="M150 250 l0 -120 64 0 c58 0 67 3 85 27 24 29 20 59 -8 83 -17 14
-17 16 1 41 15 20 17 31 9 51 -11 29 -35 38 -103 38 l-48 0 0 -120z"/>
<path d="M774 295 c-68 -29 -64 -139 6 -164 62 -21 119 34 106 103 -11 58 -60
84 -112 61z"/>
<path d="M953 295 c-18 -8 -33 -21 -33 -30 0 -19 24 -19 40 0 7 9 23 15 34 13
27 -4 34 -36 9 -44 -65 -20 -83 -34 -83 -64 0 -36 35 -55 74 -40 13 5 33 6 44
3 20 -5 21 -2 17 73 -3 43 -8 81 -12 84 -17 16 -60 18 -90 5z"/>
</g>
</svg>
